<svg width="20" height="20" viewBox="0 0 20 20" fill="none" xmlns="http://www.w3.org/2000/svg">
    <g clip-path="url(#clip0_118_12)">
        <path
            d="M2 15.937C2 17.0765 2.92366 18 4.06305 18H15.937C17.0765 18 18 17.0763 18 15.937V4.06305C18 2.92353 17.0763 2 15.937 2H4.06305C2.92353 2 2 2.92366 2 4.06305L2 15.937Z"
            fill="#563D7C" />
        <path
            d="M8.63483 9.07738V6.81154H10.6293C10.8193 6.81154 11.0024 6.82737 11.1788 6.85903C11.3552 6.89068 11.5112 6.94722 11.6469 7.02862C11.7826 7.11003 11.8911 7.2231 11.9725 7.36782C12.054 7.51255 12.0947 7.69797 12.0947 7.92411C12.0947 8.33115 11.9725 8.62512 11.7283 8.80602C11.4841 8.98693 11.172 9.07738 10.7921 9.07738H8.63483ZM6.50467 5.15625V14.8438H11.1992C11.6333 14.8438 12.0562 14.7895 12.4678 14.6809C12.8793 14.5724 13.2457 14.4051 13.5668 14.1789C13.8879 13.9528 14.1434 13.6611 14.3334 13.3038C14.5233 12.9465 14.6183 12.5236 14.6183 12.0352C14.6183 11.4292 14.4713 10.9113 14.1773 10.4817C13.8834 10.052 13.4379 9.75126 12.8409 9.57939C13.2751 9.37135 13.603 9.10452 13.8246 8.77889C14.0462 8.45325 14.157 8.04622 14.157 7.55777C14.157 7.10551 14.0824 6.72561 13.9331 6.41807C13.7839 6.11053 13.5736 5.86404 13.3022 5.67862C13.0308 5.49319 12.7052 5.35977 12.3253 5.27836C11.9454 5.19695 11.5248 5.15625 11.0635 5.15625H6.50467ZM8.63483 13.1885V10.5291H10.9549C11.4163 10.5291 11.7871 10.6354 12.0675 10.848C12.3479 11.0606 12.4881 11.4156 12.4881 11.9131C12.4881 12.1663 12.4452 12.3744 12.3592 12.5372C12.2733 12.7 12.158 12.8289 12.0132 12.9239C11.8685 13.0189 11.7012 13.0867 11.5112 13.1274C11.3213 13.1681 11.1223 13.1885 10.9142 13.1885H8.63483Z"
            fill="white" />
    </g>
    <defs>
        <clipPath id="clip0_118_12">
            <rect width="16" height="16" fill="white" transform="translate(2 2)" />
        </clipPath>
    </defs>
</svg>
    