<svg width="20" height="20" viewBox="0 0 20 20" fill="none" xmlns="http://www.w3.org/2000/svg">
    <g clip-path="url(#clip0_117_5)">
        <path
            d="M18.4338 5.8675L19 4.39975L18.9767 4.309L13.372 5.78425C13.9698 4.9195 13.7642 4.22575 13.7642 4.22575C13.7642 4.22575 11.974 5.36875 10.6195 5.3395C9.2665 5.3095 8.82925 4.9495 6.75325 5.611C4.67725 6.2725 4.09 8.3035 3.49 8.74075C2.887 9.178 1 10.5985 1 10.5985L1.0045 10.624L2.707 10.081C2.707 10.081 2.2405 10.5198 1.24825 11.8585L1.20175 11.8157L1.20325 11.824C1.20325 11.824 2.00125 13.0435 2.7835 12.817C2.87486 12.7882 2.96347 12.7513 3.04825 12.7068C3.3625 12.8823 3.7735 13.054 4.22725 13.1005C4.22725 13.1005 3.91975 12.7442 3.66325 12.3377L3.84175 12.2223L4.4905 12.4607L4.4185 11.8517C4.42075 11.8495 4.423 11.8495 4.4245 11.8473L5.06125 12.0805L4.9825 11.527C5.06173 11.485 5.14227 11.4454 5.224 11.4085L5.88775 8.89975L8.63425 7.027L8.416 7.57675C7.86025 8.94625 6.81475 9.26875 6.81475 9.26875L6.37825 9.43375C6.0535 9.81775 5.91775 9.9115 5.80525 11.1985C6.06625 11.1325 6.31675 11.1182 6.54325 11.1775C7.71625 11.4932 8.1235 12.9077 7.807 13.2977C7.729 13.3952 7.54 13.5632 7.30225 13.7605H6.8275L6.8215 14.146L6.77275 14.1842H6.289L6.28225 14.5622L6.15475 14.6575C5.6995 14.6657 5.125 14.269 5.125 14.269C5.125 14.6297 5.42575 15.1877 5.42575 15.1877L5.47825 15.1622L5.4325 15.196C5.4325 15.196 6.65125 16.0082 7.417 15.7067C8.0995 15.4397 9.86425 14.047 11.389 13.387L16.0015 12.172L16.6097 10.597L13.0938 11.5232V10.1065L17.2188 9.0205L17.827 7.4455L13.0945 8.692V7.27525L18.4338 5.8675ZM10.0615 8.8675L11.1558 8.5795L11.1707 8.635L10.8295 9.51925L9.69475 9.81775L10.0615 8.8675ZM10.4388 10.762L9.30475 11.0605L9.6715 10.111L10.7657 9.82225L10.7808 9.87775L10.4388 10.762ZM11.917 10.444L10.7823 10.7425L11.1497 9.793L12.244 9.50425L12.259 9.559L11.917 10.444Z"
            fill="white" />
    </g>
    <defs>
        <clipPath id="clip0_117_5">
            <rect width="18" height="18" fill="white" transform="translate(1 1)" />
        </clipPath>
    </defs>
</svg>
    