<svg width="20" height="20" viewBox="0 0 20 20" fill="none" xmlns="http://www.w3.org/2000/svg">
    <g clip-path="url(#clip0_118_8)">
        <path
            d="M17.991 5.61331C17.9969 5.6346 18 5.65656 18 5.67861V9.10698C18 9.19655 17.9506 9.27927 17.8705 9.32383L14.903 10.9805V14.2642C14.903 14.3536 14.8541 14.4361 14.7742 14.4811L8.57993 17.9388C8.56576 17.9466 8.55029 17.9516 8.53482 17.9569C8.52902 17.9588 8.52354 17.9622 8.51742 17.9638C8.47412 17.9749 8.42861 17.9749 8.38531 17.9638C8.37822 17.9619 8.37177 17.9582 8.36501 17.9557C8.35083 17.9507 8.33601 17.9463 8.32247 17.9388L2.12954 14.4811C2.04946 14.4365 2 14.3538 2 14.2642V3.97911C2 3.95662 2.00322 3.93474 2.00902 3.9135C2.01096 3.90631 2.01547 3.89975 2.01804 3.89256C2.02288 3.87944 2.02739 3.866 2.03448 3.85382C2.03931 3.84569 2.0464 3.83913 2.0522 3.83163C2.05961 3.82163 2.06638 3.81132 2.07508 3.80257C2.08249 3.79539 2.09216 3.79007 2.10054 3.78382C2.10988 3.77632 2.11826 3.7682 2.12889 3.76226H2.12921L5.22584 2.03339C5.30564 1.98887 5.40383 1.98887 5.48363 2.03339L8.58026 3.76226H8.5809C8.59121 3.76851 8.59991 3.77632 8.60926 3.78351C8.61763 3.78976 8.62698 3.79539 8.63439 3.80226C8.64341 3.81132 8.64986 3.82163 8.65759 3.83163C8.66307 3.83913 8.67048 3.84569 8.67499 3.85382C8.6824 3.86631 8.68659 3.87944 8.69175 3.89256C8.69432 3.89975 8.69884 3.90631 8.70077 3.91381C8.7067 3.9351 8.70974 3.95706 8.70979 3.97911V10.4031L11.2902 8.96231V5.6783C11.2902 5.65643 11.2934 5.63424 11.2992 5.61331C11.3015 5.60581 11.3057 5.59925 11.3083 5.59206C11.3134 5.57894 11.3179 5.5655 11.325 5.55332C11.3298 5.54519 11.3369 5.53863 11.3424 5.53113C11.3501 5.52113 11.3566 5.51082 11.3656 5.50207C11.373 5.49488 11.3824 5.48957 11.3907 5.48332C11.4004 5.47582 11.4088 5.4677 11.4191 5.46176H11.4194L14.5164 3.73289C14.5962 3.6883 14.6944 3.6883 14.7742 3.73289L17.8708 5.46176C17.8817 5.46801 17.8901 5.47582 17.8998 5.48301C17.9078 5.48926 17.9172 5.49488 17.9246 5.50176C17.9336 5.51082 17.9401 5.52113 17.9478 5.53113C17.9536 5.53863 17.9607 5.54519 17.9652 5.55332C17.9726 5.5655 17.9768 5.57894 17.982 5.59206C17.9849 5.59925 17.989 5.60581 17.991 5.61331ZM17.4838 8.96231V6.11138L16.4001 6.71631L14.903 7.55216V10.4031L17.4841 8.96231H17.4838ZM14.3872 14.1196V11.2667L12.9146 12.0823L8.70947 14.4095V17.2892L14.3872 14.1196ZM2.51621 4.41188V14.1196L8.19326 17.2889V14.4098L5.22745 12.7822L5.22649 12.7816L5.2252 12.781C5.21521 12.7753 5.20683 12.7672 5.19749 12.7603C5.18943 12.7541 5.18009 12.7491 5.173 12.7422L5.17235 12.7413C5.16397 12.7335 5.15817 12.7238 5.15109 12.715C5.14464 12.7066 5.13691 12.6994 5.13175 12.6906L5.13143 12.6897C5.12563 12.6803 5.12208 12.6691 5.1179 12.6585C5.11371 12.6491 5.10823 12.6403 5.10565 12.6303V12.63C5.10243 12.6182 5.10178 12.6057 5.1005 12.5935C5.09921 12.5841 5.09663 12.5747 5.09663 12.5653V12.5647V5.85266L3.59987 5.0165L2.51621 4.41219V4.41188ZM5.35506 2.53896L2.77496 3.97911L5.35441 5.41927L7.93418 3.9788L5.35441 2.53896H5.35506ZM6.69682 11.5267L8.19358 10.6912V4.41188L7.10992 5.01681L5.61284 5.85266V12.132L6.69682 11.5267ZM14.6453 4.23846L12.0655 5.67861L14.6453 7.11877L17.2247 5.6783L14.6453 4.23846ZM14.3872 7.55216L12.8901 6.71631L11.8064 6.11138V8.96231L13.3032 9.79784L14.3872 10.4031V7.55216ZM8.45104 13.9768L12.235 11.882L14.1265 10.8352L11.5486 9.39601L8.58058 11.053L5.87546 12.5632L8.45104 13.9768Z"
            fill="#FF2D20" />
    </g>
    <defs>
        <clipPath id="clip0_118_8">
            <rect width="16" height="16" fill="white" transform="translate(2 2)" />
        </clipPath>
    </defs>
</svg>
    