<svg width="20" height="20" viewBox="0 0 20 20" fill="none" xmlns="http://www.w3.org/2000/svg">
    <path
        d="M10.3487 17.875L9.92631 17.7349C9.92631 17.7349 9.98256 15.5974 9.20912 15.4473C8.70287 14.8578 9.28394 -9.71956 11.1346 15.3634C10.7834 15.5415 10.5148 15.8485 10.3847 16.2201C10.3151 16.769 10.303 17.3236 10.3487 17.875Z"
        fill="url(#paint0_linear_117_10)" />
    <path
        d="M10.5771 15.8101C11.7019 14.9634 12.5633 13.8149 13.0611 12.498C13.559 11.1811 13.6729 9.75003 13.3896 8.371C12.5627 4.72319 10.6047 3.52394 10.3938 3.06606C10.2118 2.78095 10.0564 2.47967 9.92969 2.16606L10.0855 12.3299C10.0855 12.3299 9.76262 15.436 10.5771 15.8101Z"
        fill="url(#paint1_linear_117_10)" />
    <path
        d="M9.71144 15.9451C9.71144 15.9451 6.26837 13.6 6.4675 9.45156C6.48607 8.20093 6.77283 6.96884 7.30839 5.83852C7.84395 4.70821 8.61584 3.70599 9.57194 2.89956C9.68367 2.80464 9.77243 2.68563 9.83157 2.55148C9.89071 2.41732 9.91867 2.27151 9.91337 2.125C10.1277 2.58625 10.0928 9.01169 10.1153 9.76319C10.2025 12.6865 9.95275 15.3933 9.71144 15.9451Z"
        fill="url(#paint2_linear_117_10)" />
    <defs>
        <linearGradient id="paint0_linear_117_10" x1="7.50905" y1="10.1419" x2="12.3644"
            y2="11.7896" gradientUnits="userSpaceOnUse">
            <stop offset="0.231" stop-color="#999875" />
            <stop offset="0.563" stop-color="#9B9977" />
            <stop offset="0.683" stop-color="#A09F7E" />
            <stop offset="0.768" stop-color="#A9A889" />
            <stop offset="0.837" stop-color="#B7B69A" />
            <stop offset="0.896" stop-color="#C9C7B0" />
            <stop offset="0.948" stop-color="#DEDDCB" />
            <stop offset="0.994" stop-color="#F8F6EB" />
            <stop offset="1" stop-color="#FBF9EF" />
        </linearGradient>
        <linearGradient id="paint1_linear_117_10" x1="9.28953" y1="2.09343" x2="11.4361"
            y2="15.4972" gradientUnits="userSpaceOnUse">
            <stop stop-color="#48A547" />
            <stop offset="1" stop-color="#3F9143" />
        </linearGradient>
        <linearGradient id="paint2_linear_117_10" x1="6.17133" y1="9.8622" x2="11.9317" y2="7.93306"
            gradientUnits="userSpaceOnUse">
            <stop stop-color="#41A247" />
            <stop offset="0.352" stop-color="#4BA74B" />
            <stop offset="0.956" stop-color="#67B554" />
            <stop offset="1" stop-color="#69B655" />
        </linearGradient>
    </defs>
</svg>
    