<svg width="20" height="20" viewBox="0 0 20 20" fill="none" xmlns="http://www.w3.org/2000/svg">
    <path
        d="M16.3188 10.9825C15.7692 10.9832 15.227 11.1089 14.7331 11.35C14.5785 11.0934 14.4591 10.8172 14.3781 10.5288C14.3316 10.3027 14.3208 10.0707 14.3463 9.84125C14.3997 9.5888 14.469 9.33997 14.5538 9.09625C14.5506 9.06438 14.5156 8.91375 14.1638 8.90875C13.8119 8.90375 13.5088 8.97563 13.4763 9.06875C13.4151 9.23884 13.3661 9.41302 13.3294 9.59C13.0382 10.3084 12.6797 10.9978 12.2588 11.6488C12.0229 11.2621 11.9259 10.8067 11.9838 10.3575C12.0372 10.105 12.1065 9.85622 12.1913 9.6125C12.1881 9.58063 12.1531 9.43 11.8013 9.425C11.4494 9.42 11.1463 9.49188 11.1138 9.585C11.0813 9.67813 11.04 9.8975 10.9669 10.1063C10.8938 10.315 10.04 12.2225 9.81625 12.7144C9.70125 12.9644 9.60188 13.1681 9.53188 13.3056C9.52856 13.3146 9.52437 13.3231 9.51938 13.3313C9.45688 13.4494 9.42375 13.5138 9.42375 13.5138V13.5169C9.37563 13.6031 9.32438 13.6831 9.29875 13.6831C9.25406 13.5046 9.25621 13.3175 9.305 13.14C9.43 12.4781 9.73625 11.4494 9.73313 11.4138C9.73313 11.3944 9.79063 11.2156 9.535 11.1231C9.47572 11.0949 9.40914 11.0858 9.34445 11.097C9.27975 11.1082 9.22012 11.1391 9.17375 11.1856C9.15125 11.1856 9.13563 11.24 9.13563 11.24C9.13563 11.24 9.41375 10.0831 8.605 10.0831C8.29006 10.1465 7.99097 10.2722 7.72532 10.4528C7.45966 10.6335 7.23282 10.8654 7.05813 11.135C6.84063 11.2531 6.3775 11.5056 5.88188 11.7775C5.69438 11.8831 5.49813 11.9888 5.31625 12.09C5.30375 12.0775 5.29063 12.0613 5.27813 12.0488C4.29375 11 2.48438 10.26 2.5625 8.85688C2.59125 8.34563 2.76688 7.00313 6.03688 5.3725C8.72813 4.04625 10.87 4.41375 11.2406 5.22875C11.7713 6.3925 10.0931 8.55313 7.3125 8.86625C7.00488 8.92866 6.68717 8.92113 6.38285 8.84421C6.07854 8.76729 5.7954 8.62296 5.55438 8.42188C5.4075 8.26188 5.385 8.2525 5.33063 8.28438C5.24125 8.3325 5.29875 8.47625 5.33063 8.55938C5.43671 8.75134 5.58018 8.9201 5.75258 9.05569C5.92499 9.19127 6.12281 9.29092 6.33438 9.34875C7.42827 9.58514 8.56878 9.47211 9.595 9.02563C11.2825 8.37375 12.595 6.56125 12.21 5.04313C11.8231 3.5025 9.26625 2.99438 6.84625 3.85563C5.33047 4.36567 3.9299 5.16906 2.72438 6.22C1.39125 7.46688 1.18063 8.55 1.26688 9.00438C1.57938 10.6156 3.79875 11.6638 4.68688 12.4419C4.64188 12.4675 4.60063 12.49 4.56563 12.5088C4.12125 12.7294 2.4275 13.615 2.00313 14.5513C1.52375 15.6138 2.08 16.3731 2.4475 16.4756C3.00126 16.6082 3.58258 16.5645 4.11032 16.3507C4.63806 16.1369 5.08588 15.7637 5.39125 15.2831C5.65129 14.8845 5.81113 14.4289 5.85717 13.9552C5.9032 13.4815 5.83406 13.0037 5.65563 12.5625C5.65261 12.5554 5.64839 12.5488 5.64313 12.5431L5.99125 12.3388C6.21813 12.2044 6.44188 12.08 6.63375 11.9775C6.50364 12.3528 6.42726 12.7446 6.40688 13.1413C6.3627 13.7492 6.54876 14.3516 6.92813 14.8288C6.98585 14.8784 7.05287 14.9162 7.12528 14.9398C7.1977 14.9634 7.27408 14.9724 7.35 14.9663C7.725 14.9663 7.89688 14.6538 8.085 14.2825C8.315 13.8288 8.5225 13.3013 8.5225 13.3013C8.5225 13.3013 8.26375 14.7269 8.96688 14.7269C9.2225 14.7269 9.48125 14.3944 9.59688 14.2269V14.23C9.59688 14.23 9.60313 14.2206 9.61625 14.1981L9.6575 14.1313V14.125C9.76 13.9463 9.99 13.54 10.3319 12.8656C10.7731 11.9963 11.1981 10.9094 11.1981 10.9094C11.2391 11.1482 11.2957 11.3842 11.3675 11.6156C11.4704 11.8962 11.5922 12.1695 11.7319 12.4338C11.6294 12.5775 11.5656 12.6575 11.5656 12.6575L11.5688 12.6606C11.4856 12.7694 11.3963 12.8875 11.2969 13.0025C11.0012 13.3276 10.7269 13.6714 10.4756 14.0319C10.4383 14.0924 10.4255 14.1649 10.4397 14.2346C10.454 14.3043 10.4944 14.3659 10.5525 14.4069C10.6841 14.4753 10.834 14.5001 10.9806 14.4775C11.2015 14.465 11.4187 14.4154 11.6231 14.3306C11.8206 14.2611 12.007 14.1632 12.1763 14.04C12.3508 13.9191 12.4913 13.7553 12.5842 13.5644C12.6771 13.3735 12.7194 13.1619 12.7069 12.95C12.6872 12.683 12.619 12.4219 12.5056 12.1794C12.5375 12.1344 12.5681 12.09 12.5981 12.045C12.9535 11.5146 13.2737 10.9616 13.5569 10.3894C13.5979 10.6282 13.6544 10.8642 13.7263 11.0956C13.8112 11.3381 13.9157 11.5732 14.0388 11.7988C13.63 12.1133 13.308 12.5267 13.1031 13C12.9019 13.5819 13.0581 13.8438 13.3531 13.9044C13.5146 13.9155 13.676 13.8824 13.82 13.8088C14.0318 13.7391 14.2313 13.6366 14.4113 13.505C14.601 13.393 14.7599 13.2357 14.8737 13.047C14.9875 12.8584 15.0526 12.6444 15.0631 12.4244C15.0489 12.2047 14.9993 11.9888 14.9163 11.785C15.4557 11.5743 16.0406 11.5071 16.6138 11.59C18.135 11.7688 18.4356 12.7181 18.3781 13.1181C18.3512 13.2599 18.2942 13.3943 18.2109 13.5123C18.1277 13.6302 18.0202 13.7289 17.8956 13.8019C17.79 13.8688 17.755 13.8913 17.7644 13.9394C17.7769 14.01 17.8269 14.0063 17.9175 13.9938C18.1468 13.9225 18.3491 13.7834 18.4977 13.5948C18.6463 13.4063 18.7343 13.1771 18.75 12.9375C18.7981 12 17.9031 10.9719 16.3206 10.9813L16.3188 10.9825ZM4.58125 14.9375C4.07625 15.4875 3.37313 15.695 3.06938 15.5194C2.74313 15.3319 2.87125 14.5194 3.49125 13.9369C3.85903 13.6058 4.25655 13.3093 4.67875 13.0513C4.7525 13.0063 4.86125 12.9425 4.99125 12.8638L5.02625 12.8444L5.10313 12.7963C5.21389 13.1674 5.22394 13.5613 5.13223 13.9376C5.04052 14.3138 4.85036 14.659 4.58125 14.9375ZM8.25688 12.4375C8.08125 12.8656 7.71375 13.9625 7.49 13.9013C7.29813 13.85 7.1775 13.0188 7.45188 12.1975C7.59041 11.8022 7.7922 11.4319 8.04938 11.1013C8.32438 10.7944 8.62813 10.6919 8.70125 10.8169C8.63454 11.3762 8.48477 11.9224 8.25688 12.4375ZM11.29 13.8888C11.2163 13.9269 11.1463 13.9513 11.1144 13.9338C11.0919 13.9213 11.1463 13.8713 11.1463 13.8713C11.1463 13.8713 11.5269 13.4619 11.6769 13.2769C11.7631 13.1681 11.8644 13.0406 11.9744 12.8963V12.9375C11.9744 13.4263 11.5013 13.7556 11.2906 13.89L11.29 13.8888ZM13.63 13.355C13.5756 13.3169 13.585 13.1888 13.7675 12.7894C13.8944 12.5329 14.0717 12.3046 14.2888 12.1181C14.322 12.2127 14.3393 12.3122 14.34 12.4125C14.3425 12.626 14.2742 12.8342 14.1459 13.0048C14.0176 13.1754 13.8364 13.2988 13.6306 13.3556L13.63 13.355Z"
        fill="#CD6799" />
</svg>
    