<svg width="20" height="20" viewBox="0 0 20 20" fill="none" xmlns="http://www.w3.org/2000/svg">
    <path
        d="M15.8894 4.20625C15.1519 3.19431 14.0646 2.49262 12.8387 2.23752C11.6127 1.98243 10.3358 2.19212 9.25583 2.82588L5.47751 5.1625C4.97107 5.4677 4.53483 5.87648 4.19739 6.36204C3.85995 6.8476 3.62892 7.39899 3.51945 7.98006C3.33982 8.952 3.49864 9.95613 3.96945 10.8252C3.6468 11.2996 3.42632 11.836 3.32201 12.4002C3.21464 12.9892 3.22912 13.5939 3.36457 14.1771C3.50001 14.7603 3.75354 15.3096 4.10951 15.7909C4.84702 16.803 5.93428 17.5049 7.1602 17.7604C8.38612 18.0159 9.66325 17.8067 10.7436 17.1736L14.5225 14.8375C15.0288 14.5321 15.4649 14.1233 15.8023 13.6377C16.1397 13.1522 16.3709 12.6009 16.4806 12.0199C16.6613 11.0473 16.5025 10.0421 16.0306 9.17256C16.3536 8.69824 16.5743 8.16186 16.6786 7.59756C16.7859 7.00837 16.7713 6.40341 16.6355 5.8201C16.4998 5.23679 16.2458 4.68752 15.8894 4.20625Z"
        fill="#FF3E00" />
    <path
        d="M8.88738 15.985C8.2966 16.1365 7.67393 16.1071 7.10006 15.9006C6.52618 15.6941 6.02754 15.32 5.66876 14.8268C5.45392 14.5377 5.30073 14.2075 5.21868 13.8568C5.13663 13.506 5.12747 13.1422 5.19176 12.7877C5.21315 12.6713 5.24304 12.5567 5.28119 12.4446L5.35263 12.2337L5.54613 12.3676C5.99531 12.6875 6.495 12.9297 7.02438 13.0842L7.16219 13.1253L7.14813 13.2586C7.13194 13.4525 7.18605 13.6457 7.30057 13.8031C7.40822 13.9553 7.55974 14.0711 7.73492 14.135C7.91009 14.199 8.10059 14.208 8.28101 14.1608C8.36252 14.1396 8.44043 14.1065 8.51219 14.0624L12.2809 11.7258C12.3727 11.6701 12.4518 11.5959 12.5131 11.5078C12.5745 11.4197 12.6167 11.3198 12.637 11.2144C12.6573 11.1082 12.6556 10.9989 12.6319 10.8934C12.6083 10.7878 12.5634 10.6882 12.4998 10.6008C12.3915 10.452 12.2411 10.3391 12.0681 10.2767C11.895 10.2143 11.7071 10.2053 11.5289 10.2509C11.4469 10.2721 11.3686 10.3055 11.2966 10.3499L9.84982 11.2409C9.61202 11.388 9.35335 11.4984 9.08257 11.5683C8.49132 11.7202 7.86807 11.6909 7.29365 11.4843C6.71923 11.2777 6.22015 10.9032 5.86113 10.4095C5.64772 10.1194 5.49612 9.78864 5.41572 9.43761C5.33531 9.08659 5.32782 8.72279 5.39369 8.36875C5.46009 8.01999 5.59899 7.68906 5.80141 7.3974C6.00383 7.10573 6.26526 6.85983 6.56876 6.67563L10.342 4.339C10.5798 4.19203 10.8385 4.08184 11.1093 4.01219C11.7005 3.85994 12.3239 3.88897 12.8985 4.0955C13.473 4.30204 13.9722 4.67654 14.3313 5.17038C14.5461 5.45952 14.6992 5.78969 14.7813 6.14042C14.8633 6.49116 14.8725 6.85501 14.8083 7.20944C14.7869 7.32586 14.757 7.44055 14.7188 7.55256L14.6474 7.7635L14.4539 7.63019C14.005 7.30984 13.5052 7.06757 12.9756 6.91356L12.8378 6.87194L12.8519 6.73863C12.8681 6.54463 12.8137 6.3513 12.6989 6.19413C12.591 6.04514 12.4407 5.93209 12.2676 5.86969C12.0946 5.80729 11.9067 5.79843 11.7286 5.84425C11.6469 5.86539 11.569 5.89876 11.4974 5.94325L7.71626 8.272C7.62446 8.32734 7.5454 8.40144 7.48423 8.48946C7.42306 8.57748 7.38118 8.67742 7.36132 8.78275C7.34053 8.88906 7.34199 8.99853 7.36561 9.10425C7.38923 9.20997 7.4345 9.30965 7.49857 9.397C7.60686 9.54569 7.75728 9.65847 7.93037 9.72074C8.10345 9.78302 8.29124 9.79193 8.46944 9.74631C8.55128 9.72503 8.62955 9.69186 8.70176 9.64787L10.1429 8.75631C10.3806 8.60909 10.6393 8.49889 10.9101 8.4295C11.5014 8.27757 12.1247 8.30675 12.6992 8.51326C13.2737 8.71977 13.7729 9.09408 14.1321 9.58769C14.3464 9.87708 14.499 10.2073 14.5806 10.5581C14.6621 10.9088 14.6709 11.2725 14.6063 11.6268C14.5404 11.9759 14.4017 12.3073 14.1992 12.5993C13.9968 12.8913 13.7351 13.1374 13.4313 13.3216L9.65857 15.6582C9.42087 15.8054 9.16216 15.9156 8.89132 15.985"
        fill="white" />
</svg>
    