<svg width="26" height="20" viewBox="0 0 26 20" fill="none" xmlns="http://www.w3.org/2000/svg">
    <g clip-path="url(#clip0_114_17)">
        <path
            d="M13 3C9.8 3 7.8 4.6 7 7.8C8.2 6.2 9.6 5.6 11.2 6C12.1129 6.22822 12.7654 6.89049 13.4876 7.6236C14.6641 8.81782 16.0258 10.2 19 10.2C22.2 10.2 24.2 8.6 25 5.4C23.8 7 22.4 7.6 20.8 7.2C19.8871 6.97178 19.2346 6.30951 18.5124 5.5764C17.3359 4.38218 15.9742 3 13 3ZM7 10.2C3.8 10.2 1.8 11.8 1 15C2.2 13.4 3.6 12.8 5.2 13.2C6.11289 13.4282 6.76538 14.0905 7.4876 14.8236C8.66413 16.0178 10.0258 17.4 13 17.4C16.2 17.4 18.2 15.8 19 12.6C17.8 14.2 16.4 14.8 14.8 14.4C13.8871 14.1718 13.2346 13.5095 12.5124 12.7764C11.3359 11.5822 9.97418 10.2 7 10.2Z"
            fill="url(#paint0_linear_114_17)" />
    </g>
    <defs>
        <linearGradient id="paint0_linear_114_17" x1="-169.667" y1="712.632" x2="5711.02"
            y2="2752.33" gradientUnits="userSpaceOnUse">
            <stop stop-color="#2298BD" />
            <stop offset="1" stop-color="#0ED7B5" />
        </linearGradient>
        <clipPath id="clip0_114_17">
            <rect width="24" height="14.4375" fill="white" transform="translate(1 3)" />
        </clipPath>
    </defs>
</svg>
    