<svg width="20" height="20" viewBox="0 0 20 20" fill="none" xmlns="http://www.w3.org/2000/svg">
    <path
        d="M17.137 2.125H2.863C2.45541 2.125 2.125 2.45541 2.125 2.863V17.137C2.125 17.5446 2.45541 17.875 2.863 17.875H17.137C17.5446 17.875 17.875 17.5446 17.875 17.137V2.863C17.875 2.45541 17.5446 2.125 17.137 2.125Z"
        fill="#3178C6" />
    <path fill-rule="evenodd" clip-rule="evenodd"
        d="M11.2628 14.3644V16.0902C11.5764 16.2449 11.9105 16.3539 12.2551 16.4136C12.6532 16.4871 13.0573 16.5233 13.4622 16.5216C13.8568 16.5235 14.2504 16.4837 14.6367 16.4029C14.9835 16.3329 15.3143 16.1994 15.6126 16.0092C15.8896 15.8304 16.1178 15.5857 16.2769 15.2971C16.5619 14.6993 16.5995 14.0133 16.3816 13.3879C16.2896 13.1541 16.1525 12.9406 15.9782 12.7596C15.7911 12.5672 15.5786 12.4012 15.3466 12.2663C15.0794 12.1098 14.8018 11.9719 14.5157 11.8534C14.2907 11.7601 14.0882 11.6693 13.9082 11.5812C13.7484 11.5046 13.5954 11.4145 13.4509 11.3117C13.3378 11.2324 13.2395 11.1338 13.1607 11.0204C13.0925 10.9174 13.0571 10.7962 13.0589 10.6727C13.0574 10.5591 13.089 10.4475 13.15 10.3516C13.2162 10.2512 13.3045 10.1673 13.4082 10.1063C13.5349 10.0317 13.6728 9.97796 13.8166 9.94712C13.9931 9.90791 14.1735 9.88904 14.3543 9.89087C14.5064 9.8914 14.6582 9.9023 14.8088 9.9235C14.9714 9.94548 15.1323 9.97875 15.2903 10.0231C15.451 10.0676 15.6082 10.124 15.7606 10.1918C15.9084 10.2577 16.0498 10.3372 16.183 10.4292V8.81875C15.9057 8.71386 15.6182 8.63844 15.3252 8.59375C14.9713 8.54226 14.614 8.518 14.2564 8.52119C13.8656 8.51908 13.4758 8.56345 13.0954 8.65337C12.7516 8.73194 12.4247 8.87159 12.1302 9.06569C11.8566 9.24792 11.6307 9.49308 11.4715 9.78062C11.3027 10.0999 11.2192 10.4574 11.2291 10.8184C11.2166 11.2959 11.3739 11.7623 11.6729 12.1347C12.0397 12.5476 12.5023 12.8642 13.0201 13.0566C13.2563 13.1541 13.4766 13.2496 13.681 13.3429C13.8654 13.425 14.0426 13.5223 14.2109 13.6337C14.3466 13.722 14.4657 13.8334 14.563 13.9628C14.6485 14.0802 14.6939 14.222 14.6924 14.3672C14.6931 14.4761 14.6652 14.5832 14.6114 14.6777C14.5515 14.7794 14.4675 14.8646 14.3667 14.9258C14.2405 15.0027 14.1026 15.0582 13.9583 15.0901C13.7704 15.1321 13.5782 15.1519 13.3857 15.1491C13.0079 15.1484 12.633 15.0818 12.2781 14.9522C11.9073 14.8184 11.5635 14.6194 11.2628 14.3644ZM8.36368 10.0681H10.6137V8.64662H4.34012V10.0681H6.57999V16.3984H8.36368V10.0681Z"
        fill="white" />
</svg>
    